#Comment line ignore any data following # character 
#Hierarchical Translation and Rotation (.htr) file 
[Header]	
#Header keywords are followed by a single value 
FileType HTR		#Single word string
DataType HTRS		#Translation followed by rotation and scale data
FileVersion 1		#integer
NumSegments 23		#integer
NumFrames 4		#integer
DataFrameRate 30		#integer, data frame rate in this file
EulerRotationOrder ZYX
CalibrationUnits mm
RotationUnits Degrees
GlobalAxisofGravity Y
BoneLengthAxis Y
ScaleFactor 1.00
[SegmentNames&Hierarchy]
#CHILD	PARENT
MASTER GLOBAL
weapon MASTER
arm_lock_bottom_part1 weapon
arm_lock_bottom_part2 weapon
arm_lock_bottom_part3 weapon
arm_lock_bottom_part4 weapon
arm_lock_top_part1 weapon
arm_lock_top_part2 weapon
arm_lock_top_part3 weapon
front_lower_left_part1 weapon
front_lower_right_part1 weapon
front_top_left_part weapon
front_top_right_part1 weapon
scope_part1 weapon
scope_part2 weapon
front_lower_left_part2 front_lower_left_part1
front_lower_left_part3 front_lower_left_part2
front_lower_right_part2 front_lower_right_part1
front_lower_right_part3 front_lower_right_part2
front_top_left_part2 front_top_left_part
front_top_left_part3 front_top_left_part2
front_top_right_part2 front_top_right_part1
front_top_right_part3 front_top_right_part2
[BasePosition]
#SegmentName Tx, Ty, Tz, Rx, Ry, Rz, BoneLength
MASTER 0.000000 0.000000 0.000000 -90.000000 0.000000 0.000000 10.000000 
weapon 0.000000 0.000000 0.000000 0.000000 0.000000 0.000000 10.000000 
arm_lock_bottom_part1 0.000000 0.000000 0.000000 0.000000 0.000000 0.000000 10.000000 
arm_lock_bottom_part2 0.000000 0.000000 0.000000 0.000000 0.000000 0.000000 10.000000 
arm_lock_bottom_part3 0.000000 0.000000 0.000000 0.000000 0.000000 0.000000 10.000000 
arm_lock_bottom_part4 0.000000 0.000000 0.000000 0.000000 0.000000 0.000000 10.000000 
arm_lock_top_part1 0.000000 0.000000 0.000000 0.000000 0.000000 0.000000 10.000000 
arm_lock_top_part2 0.000000 0.000000 0.000000 0.000000 0.000000 0.000000 10.000000 
arm_lock_top_part3 0.000000 0.000000 0.000000 0.000000 0.000000 0.000000 10.000000 
front_lower_left_part1 0.000000 0.000000 0.000000 0.000000 0.000000 0.000000 10.000000 
front_lower_right_part1 0.000000 0.000000 0.000000 0.000000 0.000000 0.000000 10.000000 
front_top_left_part 0.000000 0.000000 0.000000 0.000000 0.000000 0.000000 10.000000 
front_top_right_part1 0.000000 0.000000 0.000000 0.000000 0.000000 0.000000 10.000000 
scope_part1 0.000000 0.000000 0.000000 0.000000 0.000000 0.000000 10.000000 
scope_part2 0.000000 0.000000 0.000000 0.000000 0.000000 0.000000 10.000000 
front_lower_left_part2 0.000000 0.000000 0.000000 0.000000 0.000000 0.000000 10.000000 
front_lower_left_part3 0.000000 0.000000 0.000000 0.000000 0.000000 0.000000 10.000000 
front_lower_right_part2 0.000000 0.000000 0.000000 0.000000 0.000000 0.000000 10.000000 
front_lower_right_part3 0.000000 0.000000 0.000000 0.000000 0.000000 0.000000 10.000000 
front_top_left_part2 0.000000 0.000000 0.000000 0.000000 0.000000 0.000000 10.000000 
front_top_left_part3 0.000000 0.000000 0.000000 0.000000 0.000000 0.000000 10.000000 
front_top_right_part2 0.000000 0.000000 0.000000 0.000000 0.000000 0.000000 10.000000 
front_top_right_part3 0.000000 0.000000 0.000000 0.000000 0.000000 0.000000 10.000000 
#Beginning of Data. Separated by tabs
#Fr	Tx	Ty	Tz	Rx	Ry	Rz	SF
[MASTER]
71 0.000000 -0.000019 0.000002 0.002458 -0.000000 0.000000 0.000019
72 0.000000 -0.000019 0.000002 0.002458 -0.000000 0.000000 0.000019
73 0.000000 -0.000019 0.000002 0.002458 -0.000000 0.000000 0.000019
74 0.000000 -0.000019 0.000002 0.002458 -0.000000 0.000000 0.000019
[weapon]
71 10.182457 -168.977844 -13.084106 -0.002473 -0.000000 -0.000020 169.789246
72 10.182457 -168.977844 -13.084106 -0.002473 -0.000000 -0.000020 169.789246
73 10.182457 -168.977844 -13.084106 -0.002473 -0.000000 -0.000020 169.789246
74 10.182457 -168.977844 -13.084106 -0.002473 -0.000000 -0.000020 169.789246
[arm_lock_bottom_part1]
71 -48.820000 98.566208 -83.498993 179.999985 0.000004 9.388626 138.096970
72 -48.820000 98.566208 -83.498993 179.999985 0.000004 9.388626 138.096970
73 -48.820000 98.566208 -83.498993 179.999985 0.000004 9.388626 138.096970
74 -48.820000 98.566208 -83.498993 179.999985 0.000004 9.388626 138.096970
[arm_lock_bottom_part2]
71 -49.022766 58.782005 -78.526535 -179.999985 -0.000001 6.576765 109.658440
72 -49.022766 58.782005 -78.526535 -179.999985 -0.000001 6.576765 109.658440
73 -49.022766 58.782005 -78.526535 -179.999985 -0.000001 6.576765 109.658440
74 -49.022766 58.782005 -78.526535 -179.999985 -0.000001 6.576765 109.658440
[arm_lock_bottom_part3]
71 -51.266422 -16.798210 -66.920395 -179.999985 -0.000001 4.326176 85.957924
72 -51.266422 -16.798210 -66.920395 -179.999985 -0.000001 4.326176 85.957924
73 -51.266422 -16.798210 -66.920395 -179.999985 -0.000001 4.326176 85.957924
74 -51.266422 -16.798210 -66.920395 -179.999985 -0.000001 4.326176 85.957924
[arm_lock_bottom_part4]
71 -40.078102 -93.503113 -59.330063 -179.999985 -0.000000 1.322129 117.767326
72 -40.078102 -93.503113 -59.330063 -179.999985 -0.000000 1.322129 117.767326
73 -40.078102 -93.503113 -59.330063 -179.999985 -0.000000 1.322129 117.767326
74 -40.078102 -93.503113 -59.330063 -179.999985 -0.000000 1.322129 117.767326
[arm_lock_top_part1]
71 -47.532558 61.554489 78.379364 0.000000 -0.000000 -9.999999 110.415680
72 -47.532558 61.554489 78.379364 0.000000 -0.000000 -9.999999 110.415680
73 -47.532558 61.554489 78.379364 0.000000 -0.000000 -9.999999 110.415680
74 -47.532558 61.554489 78.379364 0.000000 -0.000000 -9.999999 110.415680
[arm_lock_top_part2]
71 -45.622673 13.709908 63.393555 0.000000 -0.000000 -7.722126 79.297745
72 -45.622673 13.709908 63.393555 0.000000 -0.000000 -7.722126 79.297745
73 -45.622673 13.709908 63.393555 0.000000 -0.000000 -7.722126 79.297745
74 -45.622673 13.709908 63.393555 0.000000 -0.000000 -7.722126 79.297745
[arm_lock_top_part3]
71 -43.788544 -73.747208 72.061615 0.000000 0.000000 -4.533067 112.022163
72 -43.788544 -73.747208 72.061615 0.000000 0.000000 -4.533067 112.022163
73 -43.788544 -73.747208 72.061615 0.000000 0.000000 -4.533067 112.022163
74 -43.788544 -73.747208 72.061615 0.000000 0.000000 -4.533067 112.022163
[front_lower_left_part1]
71 -46.798553 475.070984 -43.538895 0.000000 0.000003 -0.000000 479.351837
72 -46.798553 475.070984 -43.538895 0.000000 0.000003 -0.000000 479.351837
73 -46.798553 475.070984 -43.538895 0.000000 0.000003 -0.000000 479.351837
74 -46.798553 475.070984 -43.538895 0.000000 0.000003 -0.000000 479.351837
[front_lower_right_part1]
71 26.433468 475.070984 -43.538742 0.000000 -0.000000 -0.000000 477.793671
72 26.433468 475.070984 -43.538742 0.000000 -0.000000 -0.000000 477.793671
73 26.433468 475.070984 -43.538742 0.000000 -0.000000 -0.000000 477.793671
74 26.433468 475.070984 -43.538742 0.000000 -0.000000 -0.000000 477.793671
[front_top_left_part]
71 -47.897224 494.788910 7.030945 -0.000000 0.000003 -0.000001 497.151520
72 -47.897224 494.788910 7.030945 -0.000000 0.000003 -0.000001 497.151520
73 -47.897224 494.788910 7.030945 -0.000000 0.000003 -0.000001 497.151520
74 -47.897224 494.788910 7.030945 -0.000000 0.000003 -0.000001 497.151520
[front_top_right_part1]
71 27.532139 494.788910 7.031097 0.000000 -0.000000 -0.000000 495.604218
72 27.532139 494.788910 7.031097 0.000000 -0.000000 -0.000000 495.604218
73 27.532139 494.788910 7.031097 0.000000 -0.000000 -0.000000 495.604218
74 27.532139 494.788910 7.031097 0.000000 -0.000000 -0.000000 495.604218
[scope_part1]
71 -10.754299 87.338936 156.453094 -4.904633 -0.463529 0.039787 179.502960
72 -10.754299 87.338936 156.453094 -4.904602 -0.425149 0.036591 179.502960
73 -10.754299 87.338936 156.453094 -4.904573 -0.387778 0.033295 179.502960
74 -10.754299 87.338936 156.453094 -4.904548 -0.351322 0.030182 179.502960
[scope_part2]
71 -10.754299 82.597351 156.859894 -4.904605 0.430784 -0.036880 177.603500
72 -10.754299 82.597351 156.859894 -4.904578 0.395105 -0.033807 177.603500
73 -10.754299 82.597351 156.859894 -4.904553 0.360342 -0.030924 177.603500
74 -10.754299 82.597351 156.859894 -4.904531 0.326514 -0.027930 177.603500
[front_lower_left_part2]
71 -55.193516 141.618484 32.268444 0.000000 -0.000000 2.144624 155.381378
72 -55.193516 141.618484 32.268444 0.000000 -0.000000 1.997934 155.381378
73 -55.193516 141.618484 32.268444 0.000000 -0.000000 1.849233 155.381378
74 -55.193516 141.618484 32.268444 0.000000 -0.000000 1.699455 155.381378
[front_lower_left_part3]
71 -10.943755 108.509521 -11.124877 33.674271 -15.258646 -14.664736 109.625931
72 -10.943775 108.509445 -11.124877 33.649868 -15.318038 -14.572241 109.625854
73 -10.943755 108.509445 -11.125030 33.625710 -15.376709 -14.480846 109.625870
74 -10.943775 108.509521 -11.124877 33.601734 -15.434445 -14.390813 109.625931
[front_lower_right_part2]
71 55.193707 141.618347 32.268291 0.000000 0.000000 -1.020370 155.381271
72 55.193707 141.618347 32.268291 0.000000 0.000000 -0.950508 155.381271
73 55.193707 141.618347 32.268291 0.000000 0.000000 -0.879875 155.381271
74 55.193707 141.618347 32.268291 0.000000 0.000000 -0.808470 155.381271
[front_lower_right_part3]
71 10.943909 108.509445 -11.124725 33.489307 15.702117 13.971619 109.625854
72 10.943947 108.509445 -11.124725 33.478409 15.727800 13.931305 109.625862
73 10.943909 108.509521 -11.124725 33.467598 15.753130 13.891534 109.625931
74 10.943909 108.509369 -11.124877 33.457005 15.777868 13.852602 109.625793
[front_top_left_part2]
71 -40.852421 137.491531 54.745026 0.000000 -0.000003 0.000001 153.524780
72 -40.987179 137.491302 54.752350 0.000000 -0.000003 0.000001 153.563095
73 -41.120045 137.490982 54.759674 0.000000 -0.000003 0.000001 153.600952
74 -41.250465 137.490692 54.766846 0.000000 -0.000003 0.000001 153.638214
[front_top_left_part3]
71 -28.216438 149.656982 49.959717 -25.880762 -3.655216 -66.022858 160.278976
72 -28.216457 149.656982 49.959717 -25.878103 -3.675529 -66.064842 160.278992
73 -28.216457 149.656982 49.959717 -25.875488 -3.695433 -66.105804 160.278992
74 -28.216476 149.657059 49.959717 -25.872883 -3.714675 -66.145622 160.279053
[front_top_right_part2]
71 40.734493 137.484131 54.940029 0.000000 0.000000 -0.000020 153.556473
72 40.878532 137.484436 54.932251 0.000000 0.000000 -0.000020 153.592239
73 41.020477 137.484741 54.924316 0.000000 0.000000 -0.000020 153.627518
74 41.159866 137.485046 54.916687 0.000000 0.000000 -0.000020 153.662338
[front_top_right_part3]
71 28.216515 149.657059 49.959717 -25.867332 3.756649 66.232407 160.279068
72 28.216515 149.657059 49.959717 -25.865639 3.768548 66.256927 160.279068
73 28.216515 149.657059 49.959717 -25.864050 3.780246 66.281151 160.279068
74 28.216515 149.657135 49.959717 -25.862535 3.791507 66.304512 160.279129
